<svg id="Layer_1" data-name="Layer 1" xmlns="http://www.w3.org/2000/svg" viewBox="0 0 861.63 774.99"><defs><style>.cls-1,.cls-2,.cls-3{fill:#04aa6d;}.cls-2{font-size:300px;}.cls-2,.cls-3{font-family:AKbalthomHighSchool, AKbalthom HighSchool;}.cls-3{font-size:200px;}</style></defs><text x="-214" y="5.52"/><path class="cls-1" d="M601.38,323.05a47.1,47.1,0,1,1,94.19,0v117.8a47.1,47.1,0,0,1-94.2,0Zm47.09-165.3a47.1,47.1,0,1,1,0,94.2H530.67a47.1,47.1,0,1,1,0-94.2Zm165.3,47.1a47.1,47.1,0,0,1-94.2,0V87.05a47.1,47.1,0,0,1,94.2,0Zm-47.09,165.3a47.1,47.1,0,1,1,0-94.2h117.8a47.1,47.1,0,1,1,0,94.2Z" transform="translate(-214 5.52)"/><text class="cls-2" transform="translate(226.63 489.49)">4</text><text class="cls-2" transform="translate(606.63 252.54)">T</text><text class="cls-3" transform="translate(172.38 672.25)">SCHools</text></svg>