<svg id="Layer_1" data-name="Layer 1" xmlns="http://www.w3.org/2000/svg" viewBox="0 0 1047.25 774.99"><defs><style>.cls-1,.cls-2,.cls-3{fill:#63e6be;}.cls-2{font-size:300px;}.cls-2,.cls-3{font-family:AKbalthomHighSchool, AKbalthom HighSchool;}.cls-3{font-size:200px;}</style></defs><text x="-214" y="5.52"/><path class="cls-1" d="M612,323.05a47.1,47.1,0,0,1,94.2,0v117.8a47.1,47.1,0,0,1-94.2,0Zm47.1-189a47.05,47.05,0,1,1,47.1-47v47.1H659.1Zm0,23.7a47.1,47.1,0,1,1,0,94.2H541.3a47.1,47.1,0,1,1,0-94.2Zm165.3,47.1a47.1,47.1,0,0,1-94.2,0V87.05a47.1,47.1,0,0,1,94.2,0Zm-47.1,189A47.1,47.1,0,1,1,730.2,441v-47.1Zm0-23.7a47.1,47.1,0,1,1,0-94.2H895.1a47.1,47.1,0,1,1,0,94.2Z" transform="translate(-214 5.52)"/><text class="cls-2" transform="translate(237.25 489.49)">4</text><text class="cls-2" transform="translate(617.25 252.54)">T</text><text class="cls-3" transform="translate(237.75 672.25)">SCHools</text></svg>